<svg width="2443" height="1303" viewBox="0 0 2443 1303" fill="none" xmlns="http://www.w3.org/2000/svg">
<rect width="2443" height="1303" fill="white"/>
<path fill-rule="evenodd" clip-rule="evenodd" d="M570.272 894.327C534.926 894.327 506.272 970.887 506.272 1065.33C506.272 1159.77 534.926 1236.33 570.272 1236.33V1166.33C550.942 1166.33 535.272 1121.33 535.272 1065.83C535.272 1010.32 550.942 965.327 570.272 965.327V894.327Z" fill="#232324"/>
<path d="M570.272 894.327H574.272V890.327H570.272V894.327ZM570.272 1236.33V1240.33H574.272V1236.33H570.272ZM570.272 1166.33H574.272V1162.33H570.272V1166.33ZM570.272 965.327V969.327H574.272V965.327H570.272ZM510.272 1065.33C510.272 1018.46 517.389 976.206 528.764 945.814C534.457 930.604 541.139 918.573 548.356 910.416C555.578 902.255 562.994 898.327 570.272 898.327V890.327C559.878 890.327 550.457 895.97 542.365 905.115C534.269 914.264 527.16 927.276 521.271 943.01C509.483 974.509 502.272 1017.76 502.272 1065.33H510.272ZM570.272 1232.33C562.994 1232.33 555.578 1228.4 548.356 1220.24C541.139 1212.08 534.457 1200.05 528.764 1184.84C517.389 1154.45 510.272 1112.2 510.272 1065.33H502.272C502.272 1112.9 509.483 1156.15 521.271 1187.64C527.16 1203.38 534.269 1216.39 542.365 1225.54C550.457 1234.68 559.878 1240.33 570.272 1240.33V1232.33ZM574.272 1236.33V1166.33H566.272V1236.33H574.272ZM531.272 1065.83C531.272 1093.91 535.23 1119.5 541.746 1138.21C544.998 1147.54 548.962 1155.39 553.561 1160.97C558.138 1166.53 563.764 1170.33 570.272 1170.33V1162.33C567.116 1162.33 563.535 1160.5 559.737 1155.89C555.962 1151.3 552.383 1144.43 549.301 1135.58C543.15 1117.91 539.272 1093.25 539.272 1065.83H531.272ZM570.272 961.327C563.764 961.327 558.138 965.124 553.561 970.683C548.962 976.269 544.998 984.11 541.746 993.448C535.23 1012.16 531.272 1037.75 531.272 1065.83H539.272C539.272 1038.4 543.15 1013.74 549.301 996.079C552.383 987.229 555.962 980.353 559.737 975.768C563.535 971.155 567.116 969.327 570.272 969.327V961.327ZM574.272 965.327V894.327H566.272V965.327H574.272Z" fill="#0E0E10"/>
<path fill-rule="evenodd" clip-rule="evenodd" d="M572.735 1164.9C571.71 1165.18 570.672 1165.33 569.623 1165.33C551.204 1165.33 536.272 1120.33 536.272 1064.83C536.272 1009.32 551.204 964.327 569.623 964.327C570.672 964.327 571.71 964.474 572.735 964.759V964.327H1420.27V1165.33H572.735V1164.9Z" fill="#ADB0A2" fill-opacity="0.25"/>
<path d="M572.735 1164.9H576.735V1159.63L571.661 1161.04L572.735 1164.9ZM572.735 964.759L571.661 968.612L576.735 970.028V964.759H572.735ZM572.735 964.327V960.327H568.735V964.327H572.735ZM1420.27 964.327H1424.27V960.327H1420.27V964.327ZM1420.27 1165.33V1169.33H1424.27V1165.33H1420.27ZM572.735 1165.33H568.735V1169.33H572.735V1165.33ZM571.661 1161.04C570.973 1161.23 570.296 1161.33 569.623 1161.33V1169.33C571.048 1169.33 572.448 1169.13 573.81 1168.75L571.661 1161.04ZM569.623 1161.33C566.777 1161.33 563.422 1159.59 559.788 1154.96C556.191 1150.38 552.778 1143.49 549.837 1134.63C543.97 1116.95 540.272 1092.27 540.272 1064.83H532.272C532.272 1092.89 536.041 1118.46 542.244 1137.15C545.339 1146.48 549.111 1154.31 553.494 1159.9C557.84 1165.44 563.259 1169.33 569.623 1169.33V1161.33ZM540.272 1064.83C540.272 1037.38 543.97 1012.7 549.837 995.023C552.778 986.161 556.191 979.279 559.788 974.694C563.422 970.062 566.777 968.327 569.623 968.327V960.327C563.259 960.327 557.84 964.217 553.494 969.756C549.111 975.343 545.339 983.178 542.244 992.503C536.041 1011.2 532.272 1036.77 532.272 1064.83H540.272ZM569.623 968.327C570.296 968.327 570.973 968.421 571.661 968.612L573.81 960.906C572.448 960.526 571.048 960.327 569.623 960.327V968.327ZM576.735 964.759V964.327H568.735V964.759H576.735ZM572.735 968.327H1420.27V960.327H572.735V968.327ZM1416.27 964.327V1165.33H1424.27V964.327H1416.27ZM1420.27 1161.33H572.735V1169.33H1420.27V1161.33ZM576.735 1165.33V1164.9H568.735V1165.33H576.735Z" fill="#0E0E10"/>
<ellipse cx="1420.27" cy="1064.83" rx="27" ry="100.5" fill="#FBFFE9" stroke="#0E0E10" stroke-width="8"/>
<rect x="1430.27" y="1016.33" width="70" height="97" stroke="#0E0E10" stroke-width="8"/>
<ellipse cx="1504.27" cy="1064.83" rx="11" ry="48.5" fill="#FBFFE9" stroke="#0E0E10" stroke-width="8"/>
<ellipse cx="1426.27" cy="1064.83" rx="11" ry="48.5" fill="#0E0E10" stroke="#0E0E10" stroke-width="8"/>
<path fill-rule="evenodd" clip-rule="evenodd" d="M1500.67 1078.27C1500.64 1078.31 1500.6 1078.33 1500.57 1078.33C1499.94 1078.33 1499.42 1072.28 1499.42 1064.83C1499.42 1057.37 1499.94 1051.33 1500.57 1051.33C1500.6 1051.33 1500.64 1051.35 1500.67 1051.39V1051.33H1529.68V1078.33H1500.67V1078.27Z" fill="#0E0E10"/>
<path d="M1500.67 1078.27H1504.67V1067.96L1497.72 1075.57L1500.67 1078.27ZM1500.67 1051.39L1497.72 1054.08L1504.67 1061.69V1051.39H1500.67ZM1500.67 1051.33V1047.33H1496.67V1051.33H1500.67ZM1529.68 1051.33H1533.68V1047.33H1529.68V1051.33ZM1529.68 1078.33V1082.33H1533.68V1078.33H1529.68ZM1500.67 1078.33H1496.67V1082.33H1500.67V1078.33ZM1497.72 1075.57C1498.08 1075.18 1499.03 1074.33 1500.57 1074.33V1082.33C1502.17 1082.33 1503.2 1081.44 1503.63 1080.97L1497.72 1075.57ZM1500.57 1074.33C1502.25 1074.33 1503.23 1075.34 1503.52 1075.7C1503.86 1076.1 1504 1076.45 1504.03 1076.53C1504.11 1076.71 1504.1 1076.75 1504.04 1076.48C1503.95 1076.02 1503.84 1075.21 1503.74 1074.04C1503.55 1071.74 1503.42 1068.48 1503.42 1064.83H1495.42C1495.42 1068.63 1495.55 1072.12 1495.77 1074.71C1495.88 1075.98 1496.02 1077.15 1496.2 1078.05C1496.28 1078.47 1496.42 1079.04 1496.64 1079.58C1496.74 1079.83 1496.96 1080.32 1497.38 1080.82C1497.75 1081.27 1498.81 1082.33 1500.57 1082.33V1074.33ZM1503.42 1064.83C1503.42 1061.18 1503.55 1057.92 1503.74 1055.62C1503.84 1054.45 1503.95 1053.63 1504.04 1053.17C1504.1 1052.91 1504.11 1052.95 1504.03 1053.13C1504 1053.2 1503.86 1053.56 1503.52 1053.96C1503.23 1054.31 1502.25 1055.33 1500.57 1055.33V1047.33C1498.81 1047.33 1497.75 1048.39 1497.38 1048.84C1496.96 1049.33 1496.74 1049.82 1496.64 1050.07C1496.42 1050.62 1496.28 1051.18 1496.2 1051.6C1496.02 1052.51 1495.88 1053.67 1495.77 1054.94C1495.55 1057.53 1495.42 1061.02 1495.42 1064.83H1503.42ZM1500.57 1055.33C1499.03 1055.33 1498.08 1054.47 1497.72 1054.08L1503.63 1048.69C1503.2 1048.22 1502.17 1047.33 1500.57 1047.33V1055.33ZM1504.67 1051.39V1051.33H1496.67V1051.39H1504.67ZM1500.67 1055.33H1529.68V1047.33H1500.67V1055.33ZM1525.68 1051.33V1078.33H1533.68V1051.33H1525.68ZM1529.68 1074.33H1500.67V1082.33H1529.68V1074.33ZM1504.67 1078.33V1078.27H1496.67V1078.33H1504.67Z" fill="#0E0E10"/>
<ellipse cx="1533.98" cy="1064.83" rx="1.29661" ry="13.5" fill="#262626" stroke="#0E0E10" stroke-width="8"/>
<ellipse cx="1496.57" cy="1064.83" rx="1.29661" ry="13.5" fill="#262626" stroke="#0E0E10" stroke-width="8"/>
<path fill-rule="evenodd" clip-rule="evenodd" d="M208.359 221.607C151.429 243.853 130.39 269.455 130.39 296.849C130.39 305.276 135.228 315.883 149.946 328.712C164.534 341.428 186.826 354.502 216.666 367.708C276.215 394.063 362.094 419.355 466.272 443.759C674.402 492.514 952.07 536.948 1229.99 579.606C1267.96 585.434 1305.94 591.23 1343.74 596.998C1582.23 633.393 1813.72 668.718 1992.69 704.534C2096.27 725.263 2183.06 746.308 2243.71 768.062C2273.91 778.894 2298.67 790.262 2315.91 802.461C2332.37 814.1 2346.66 829.924 2344.9 850.257C2342.88 873.553 2330.24 893.73 2311.87 910.905C2293.55 928.034 2268.56 943.139 2239.28 956.586C2180.7 983.497 2101.77 1005.21 2015.78 1022.56C1843.56 1057.32 1639.36 1075.32 1503.86 1081.27L1502.45 1049.31C1636.99 1043.39 1839.41 1025.51 2009.45 991.194C2094.58 974.011 2170.69 952.882 2225.92 927.507C2253.56 914.812 2275.17 901.412 2290.02 887.531C2304.81 873.696 2311.9 860.358 2313.02 847.49C2313.21 845.22 2311.92 838.837 2297.43 828.585C2283.73 818.893 2262.19 808.687 2232.9 798.182C2174.58 777.264 2089.71 756.586 1986.41 735.912C1808.23 700.254 1577.61 665.059 1339 628.647C1301.19 622.876 1263.17 617.074 1225.13 611.235C947.442 568.612 668.525 524.004 458.973 474.916C354.309 450.398 266.072 424.568 203.715 396.97C172.602 383.2 146.994 368.589 128.919 352.835C110.975 337.193 98.3898 318.544 98.3898 296.849C98.3898 248.242 137.273 215.029 196.712 191.802C257.021 168.235 345.235 152.013 458.423 140.668C685.157 117.942 1017.73 114.327 1441.27 114.327L1441.27 146.327C1017.32 146.327 686.446 149.973 461.614 172.508C349.019 183.794 264.418 199.701 208.359 221.607Z" stroke="black" stroke-width="12"/>
<line x1="569.151" y1="1163.42" x2="607.361" y2="1125.21" stroke="#0E0E10" stroke-opacity="0.6" stroke-width="6"/>
<line x1="618.151" y1="1163.42" x2="656.361" y2="1125.21" stroke="#0E0E10" stroke-opacity="0.6" stroke-width="6"/>
<line x1="667.151" y1="1163.42" x2="705.361" y2="1125.21" stroke="#0E0E10" stroke-opacity="0.6" stroke-width="6"/>
<line x1="716.151" y1="1163.42" x2="754.361" y2="1125.21" stroke="#0E0E10" stroke-opacity="0.6" stroke-width="6"/>
<line x1="765.151" y1="1163.42" x2="803.361" y2="1125.21" stroke="#0E0E10" stroke-opacity="0.6" stroke-width="6"/>
<line x1="814.151" y1="1163.42" x2="852.361" y2="1125.21" stroke="#0E0E10" stroke-opacity="0.6" stroke-width="6"/>
<line x1="863.151" y1="1163.42" x2="901.361" y2="1125.21" stroke="#0E0E10" stroke-opacity="0.6" stroke-width="6"/>
<line x1="912.151" y1="1163.42" x2="950.361" y2="1125.21" stroke="#0E0E10" stroke-opacity="0.6" stroke-width="6"/>
<line x1="961.151" y1="1163.42" x2="999.361" y2="1125.21" stroke="#0E0E10" stroke-opacity="0.6" stroke-width="6"/>
<line x1="1010.15" y1="1163.42" x2="1048.36" y2="1125.21" stroke="#0E0E10" stroke-opacity="0.6" stroke-width="6"/>
<line x1="1059.15" y1="1163.42" x2="1097.36" y2="1125.21" stroke="#0E0E10" stroke-opacity="0.6" stroke-width="6"/>
<line x1="1108.15" y1="1163.42" x2="1146.36" y2="1125.21" stroke="#0E0E10" stroke-opacity="0.6" stroke-width="6"/>
<line x1="1157.15" y1="1163.42" x2="1195.36" y2="1125.21" stroke="#0E0E10" stroke-opacity="0.6" stroke-width="6"/>
<line x1="1206.15" y1="1163.42" x2="1244.36" y2="1125.21" stroke="#0E0E10" stroke-opacity="0.6" stroke-width="6"/>
<line x1="1255.15" y1="1163.42" x2="1293.36" y2="1125.21" stroke="#0E0E10" stroke-opacity="0.6" stroke-width="6"/>
<line x1="1304.15" y1="1163.42" x2="1342.36" y2="1125.21" stroke="#0E0E10" stroke-opacity="0.6" stroke-width="6"/>
<line x1="1353.15" y1="1163.42" x2="1391.36" y2="1125.21" stroke="#0E0E10" stroke-opacity="0.6" stroke-width="6"/>
</svg>
