<svg width="2443" height="1303" viewBox="0 0 2443 1303" fill="none" xmlns="http://www.w3.org/2000/svg">
<rect width="2443" height="1303" fill="white"/>
<ellipse cx="382.772" cy="1065.33" rx="61.5" ry="164" fill="#232324" stroke="#0E0E10" stroke-width="8"/>
<path d="M390.995 966.997C391.157 966.033 391.991 965.327 392.968 965.327H1057.51C1058.61 965.327 1059.51 966.223 1059.51 967.327V1063.33C1059.51 1064.43 1058.61 1065.33 1057.51 1065.33H376.872C375.635 1065.33 374.695 1064.22 374.9 1063L390.995 966.997Z" fill="#888886" stroke="#0E0E10" stroke-width="8"/>
<path d="M375.429 1067.98C374.979 1066.68 375.943 1065.33 377.319 1065.33H1058.08C1058.93 1065.33 1059.69 1065.87 1059.97 1066.67L1091.85 1158.67C1092.3 1159.97 1091.34 1161.33 1089.96 1161.33H409.199C408.347 1161.33 407.588 1160.79 407.309 1159.98L375.429 1067.98Z" fill="#555552" stroke="#0E0E10" stroke-width="8"/>
<path d="M376.102 1064.81C376.466 1064.5 376.929 1064.33 377.408 1064.33H1056.28C1058.13 1064.33 1058.99 1066.63 1057.58 1067.84L1026.84 1094.34C1026.47 1094.66 1026.01 1094.83 1025.53 1094.83H346.66C344.805 1094.83 343.949 1092.52 345.354 1091.31L376.102 1064.81Z" fill="#3F3F3E" stroke="#0E0E10" stroke-width="8"/>
<path fill-rule="evenodd" clip-rule="evenodd" d="M1002.6 1159.92C1002.48 1160.19 1002.36 1160.33 1002.23 1160.33C1000.05 1160.33 998.272 1117.57 998.272 1064.83C998.272 1012.08 1000.05 969.327 1002.23 969.327C1002.36 969.327 1002.48 969.466 1002.6 969.738V969.327H1103.27V1160.33H1002.6V1159.92Z" fill="#0E0E10"/>
<path d="M1002.6 1159.92H1006.6L998.953 1158.28L1002.6 1159.92ZM1002.6 969.738L998.953 971.374L1006.6 969.738H1002.6ZM1002.6 969.327V965.327H998.603V969.327H1002.6ZM1103.27 969.327H1107.27V965.327H1103.27V969.327ZM1103.27 1160.33V1164.33H1107.27V1160.33H1103.27ZM1002.6 1160.33H998.603V1164.33H1002.6V1160.33ZM998.953 1158.28C998.969 1158.25 999.109 1157.92 999.443 1157.55C999.761 1157.2 1000.7 1156.33 1002.23 1156.33V1164.33C1003.9 1164.33 1004.96 1163.39 1005.4 1162.9C1005.85 1162.39 1006.12 1161.86 1006.25 1161.55L998.953 1158.28ZM1002.23 1156.33C1003.92 1156.33 1004.87 1157.36 1005.13 1157.67C1005.29 1157.87 1005.39 1158.04 1005.44 1158.13C1005.49 1158.23 1005.52 1158.3 1005.53 1158.32C1005.54 1158.35 1005.47 1158.16 1005.36 1157.59C1005.14 1156.53 1004.91 1154.81 1004.67 1152.43C1004.21 1147.71 1003.79 1140.81 1003.43 1132.19C1002.72 1114.98 1002.27 1091.16 1002.27 1064.83H994.272C994.272 1091.24 994.716 1115.17 995.436 1132.52C995.796 1141.19 996.226 1148.27 996.711 1153.21C996.951 1155.66 997.216 1157.7 997.515 1159.18C997.659 1159.89 997.848 1160.67 998.126 1161.35C998.256 1161.67 998.502 1162.21 998.934 1162.74C999.323 1163.21 1000.41 1164.33 1002.23 1164.33V1156.33ZM1002.27 1064.83C1002.27 1038.49 1002.72 1014.68 1003.43 997.464C1003.79 988.848 1004.21 981.943 1004.67 977.223C1004.91 974.842 1005.14 973.129 1005.36 972.062C1005.47 971.497 1005.54 971.306 1005.53 971.333C1005.52 971.355 1005.49 971.423 1005.44 971.52C1005.39 971.612 1005.29 971.783 1005.13 971.985C1004.87 972.294 1003.92 973.327 1002.23 973.327V965.327C1000.41 965.327 999.323 966.444 998.934 966.919C998.502 967.447 998.256 967.988 998.126 968.308C997.848 968.987 997.659 969.766 997.515 970.473C997.216 971.95 996.951 973.99 996.711 976.442C996.226 981.387 995.796 988.468 995.436 997.133C994.716 1014.49 994.272 1038.42 994.272 1064.83H1002.27ZM1002.23 973.327C1000.7 973.327 999.761 972.457 999.443 972.102C999.109 971.73 998.969 971.41 998.953 971.374L1006.25 968.102C1006.12 967.795 1005.85 967.268 1005.4 966.759C1004.96 966.267 1003.9 965.327 1002.23 965.327V973.327ZM1006.6 969.738V969.327H998.603V969.738H1006.6ZM1002.6 973.327H1103.27V965.327H1002.6V973.327ZM1099.27 969.327V1160.33H1107.27V969.327H1099.27ZM1103.27 1156.33H1002.6V1164.33H1103.27V1156.33ZM1006.6 1160.33V1159.92H998.603V1160.33H1006.6Z" fill="#0E0E10"/>
<ellipse cx="1107.77" cy="1064.83" rx="28.5" ry="95.5" fill="#262626" stroke="#0E0E10" stroke-width="8"/>
<ellipse cx="998.772" cy="1064.83" rx="28.5" ry="95.5" fill="#0E0E10" stroke="#0E0E10" stroke-width="8"/>
</svg>
