<svg width="2443" height="1303" viewBox="0 0 2443 1303" fill="none" xmlns="http://www.w3.org/2000/svg">
<rect width="2443" height="1303" fill="white"/>
<path fill-rule="evenodd" clip-rule="evenodd" d="M571.272 1236.33C535.926 1236.33 507.272 1159.77 507.272 1065.33C507.272 970.887 535.926 894.327 571.272 894.327C606.619 894.327 635.272 970.887 635.272 1065.33C635.272 1159.77 606.619 1236.33 571.272 1236.33ZM571.272 1165.33C590.602 1165.33 606.272 1120.33 606.272 1064.83C606.272 1009.32 590.602 964.327 571.272 964.327C551.942 964.327 536.272 1009.32 536.272 1064.83C536.272 1120.33 551.942 1165.33 571.272 1165.33Z" fill="#232324"/>
<path d="M503.272 1065.33C503.272 1112.9 510.483 1156.15 522.271 1187.64C528.16 1203.38 535.269 1216.39 543.365 1225.54C551.457 1234.68 560.878 1240.33 571.272 1240.33V1232.33C563.994 1232.33 556.578 1228.4 549.356 1220.24C542.139 1212.08 535.457 1200.05 529.764 1184.84C518.389 1154.45 511.272 1112.2 511.272 1065.33H503.272ZM571.272 890.327C560.878 890.327 551.457 895.97 543.365 905.115C535.269 914.264 528.16 927.276 522.271 943.01C510.483 974.509 503.272 1017.76 503.272 1065.33H511.272C511.272 1018.46 518.389 976.206 529.764 945.814C535.457 930.604 542.139 918.573 549.356 910.416C556.578 902.255 563.994 898.327 571.272 898.327V890.327ZM639.272 1065.33C639.272 1017.76 632.062 974.509 620.274 943.01C614.385 927.276 607.276 914.264 599.18 905.115C591.088 895.97 581.667 890.327 571.272 890.327V898.327C578.551 898.327 585.967 902.255 593.189 910.416C600.406 918.573 607.088 930.604 612.781 945.814C624.156 976.206 631.272 1018.46 631.272 1065.33H639.272ZM571.272 1240.33C581.667 1240.33 591.088 1234.68 599.18 1225.54C607.276 1216.39 614.385 1203.38 620.274 1187.64C632.062 1156.15 639.272 1112.9 639.272 1065.33H631.272C631.272 1112.2 624.156 1154.45 612.781 1184.84C607.088 1200.05 600.406 1212.08 593.189 1220.24C585.967 1228.4 578.551 1232.33 571.272 1232.33V1240.33ZM602.272 1064.83C602.272 1092.25 598.395 1116.91 592.244 1134.58C589.162 1143.43 585.583 1150.3 581.808 1154.89C578.01 1159.5 574.429 1161.33 571.272 1161.33V1169.33C577.781 1169.33 583.407 1165.53 587.984 1159.97C592.583 1154.39 596.547 1146.54 599.799 1137.21C606.315 1118.5 610.272 1092.91 610.272 1064.83H602.272ZM571.272 968.327C574.429 968.327 578.01 970.155 581.808 974.768C585.583 979.353 589.162 986.229 592.244 995.079C598.395 1012.74 602.272 1037.4 602.272 1064.83H610.272C610.272 1036.75 606.315 1011.16 599.799 992.448C596.547 983.11 592.583 975.269 587.984 969.683C583.407 964.124 577.781 960.327 571.272 960.327V968.327ZM540.272 1064.83C540.272 1037.4 544.15 1012.74 550.301 995.079C553.383 986.229 556.962 979.353 560.737 974.768C564.535 970.155 568.116 968.327 571.272 968.327V960.327C564.764 960.327 559.138 964.124 554.561 969.683C549.962 975.269 545.998 983.11 542.746 992.448C536.23 1011.16 532.272 1036.75 532.272 1064.83H540.272ZM571.272 1161.33C568.116 1161.33 564.535 1159.5 560.737 1154.89C556.962 1150.3 553.383 1143.43 550.301 1134.58C544.15 1116.91 540.272 1092.25 540.272 1064.83H532.272C532.272 1092.91 536.23 1118.5 542.746 1137.21C545.998 1146.54 549.962 1154.39 554.561 1159.97C559.138 1165.53 564.764 1169.33 571.272 1169.33V1161.33Z" fill="#0E0E10"/>
</svg>
