<svg width="6972" height="8151" viewBox="0 0 6972 8151" fill="none" xmlns="http://www.w3.org/2000/svg">
<path fill-rule="evenodd" clip-rule="evenodd" d="M2669.93 4913.31C2639.41 4913.31 2614.66 4847.2 2614.66 4765.64C2614.66 4684.08 2639.41 4617.97 2669.93 4617.97C2700.46 4617.97 2725.2 4684.08 2725.2 4765.64C2725.2 4847.2 2700.46 4913.31 2669.93 4913.31ZM2669.93 4852C2686.62 4852 2700.16 4813.14 2700.16 4765.21C2700.16 4717.28 2686.62 4678.42 2669.93 4678.42C2653.24 4678.42 2639.71 4717.28 2639.71 4765.21C2639.71 4813.14 2653.24 4852 2669.93 4852Z" fill="#232324"/>
<path d="M2610.66 4765.64C2610.66 4806.77 2616.89 4844.19 2627.1 4871.46C2632.2 4885.09 2638.37 4896.39 2645.42 4904.36C2652.47 4912.32 2660.74 4917.31 2669.93 4917.31V4909.31C2663.86 4909.31 2657.59 4906.04 2651.41 4899.06C2645.24 4892.08 2639.5 4881.76 2634.6 4868.66C2624.8 4842.49 2618.66 4806.07 2618.66 4765.64H2610.66ZM2669.93 4613.97C2660.74 4613.97 2652.47 4618.96 2645.42 4626.92C2638.37 4634.89 2632.2 4646.19 2627.1 4659.82C2616.89 4687.09 2610.66 4724.51 2610.66 4765.64H2618.66C2618.66 4725.21 2624.8 4688.79 2634.6 4662.62C2639.5 4649.52 2645.24 4639.2 2651.41 4632.22C2657.59 4625.24 2663.86 4621.97 2669.93 4621.97V4613.97ZM2729.2 4765.64C2729.2 4724.51 2722.97 4687.09 2712.76 4659.82C2707.66 4646.19 2701.49 4634.89 2694.44 4626.92C2687.39 4618.96 2679.12 4613.97 2669.93 4613.97V4621.97C2676 4621.97 2682.27 4625.24 2688.45 4632.22C2694.62 4639.2 2700.36 4649.52 2705.27 4662.62C2715.06 4688.79 2721.2 4725.21 2721.2 4765.64H2729.2ZM2669.93 4917.31C2679.12 4917.31 2687.39 4912.32 2694.44 4904.36C2701.49 4896.39 2707.66 4885.09 2712.76 4871.46C2722.97 4844.19 2729.2 4806.77 2729.2 4765.64H2721.2C2721.2 4806.07 2715.06 4842.49 2705.27 4868.66C2700.36 4881.76 2694.62 4892.08 2688.45 4899.06C2682.27 4906.04 2676 4909.31 2669.93 4909.31V4917.31ZM2696.16 4765.21C2696.16 4788.85 2692.81 4810.08 2687.53 4825.26C2684.88 4832.87 2681.81 4838.74 2678.61 4842.64C2675.38 4846.55 2672.43 4848 2669.93 4848V4856C2675.78 4856 2680.78 4852.59 2684.78 4847.72C2688.81 4842.83 2692.26 4835.99 2695.08 4827.89C2700.73 4811.66 2704.16 4789.5 2704.16 4765.21H2696.16ZM2669.93 4682.42C2672.43 4682.42 2675.38 4683.86 2678.61 4687.78C2681.81 4691.67 2684.88 4697.54 2687.53 4705.15C2692.81 4720.33 2696.16 4741.57 2696.16 4765.21H2704.16C2704.16 4740.92 2700.73 4718.75 2695.08 4702.52C2692.26 4694.43 2688.81 4687.59 2684.78 4682.7C2680.78 4677.83 2675.78 4674.42 2669.93 4674.42V4682.42ZM2643.71 4765.21C2643.71 4741.57 2647.05 4720.33 2652.34 4705.15C2654.99 4697.54 2658.05 4691.67 2661.25 4687.78C2664.48 4683.86 2667.43 4682.42 2669.93 4682.42V4674.42C2664.08 4674.42 2659.08 4677.83 2655.08 4682.7C2651.05 4687.59 2647.6 4694.43 2644.78 4702.52C2639.13 4718.75 2635.71 4740.92 2635.71 4765.21H2643.71ZM2669.93 4848C2667.43 4848 2664.48 4846.55 2661.25 4842.64C2658.05 4838.74 2654.99 4832.87 2652.34 4825.26C2647.05 4810.08 2643.71 4788.85 2643.71 4765.21H2635.71C2635.71 4789.5 2639.13 4811.66 2644.78 4827.89C2647.6 4835.99 2651.05 4842.83 2655.08 4847.72C2659.08 4852.59 2664.08 4856 2669.93 4856V4848Z" fill="#0E0E10"/>
</svg>
