<svg width="6972" height="8151" viewBox="0 0 6972 8151" fill="none" xmlns="http://www.w3.org/2000/svg">
<ellipse cx="2507.14" cy="4765.64" rx="53.1108" ry="141.629" fill="#232324" stroke="#0E0E10" stroke-width="8"/>
<path d="M2514.21 4680.95C2514.37 4679.99 2515.2 4679.28 2516.18 4679.28H3089.56C3090.67 4679.28 3091.56 4680.18 3091.56 4681.28V4763.64C3091.56 4764.74 3090.67 4765.64 3089.56 4765.64H2502.37C2501.13 4765.64 2500.19 4764.53 2500.4 4763.31L2514.21 4680.95Z" fill="#888886" stroke="#0E0E10" stroke-width="8"/>
<path d="M2500.93 4768.29C2500.48 4767 2501.44 4765.64 2502.82 4765.64H3090.14C3090.99 4765.64 3091.75 4766.18 3092.03 4766.99L3119.37 4845.89C3119.82 4847.19 3118.86 4848.54 3117.48 4848.54H2530.16C2529.31 4848.54 2528.55 4848 2528.27 4847.2L2500.93 4768.29Z" fill="#555552" stroke="#0E0E10" stroke-width="8"/>
<path d="M2501.31 4765.26C2501.67 4764.95 2502.13 4764.78 2502.61 4764.78H3088.04C3089.9 4764.78 3090.75 4767.08 3089.35 4768.29L3063.43 4790.63C3063.06 4790.94 3062.6 4791.12 3062.12 4791.12H2476.69C2474.84 4791.12 2473.98 4788.81 2475.39 4787.6L2501.31 4765.26Z" fill="#3F3F3E" stroke="#0E0E10" stroke-width="8"/>
<path fill-rule="evenodd" clip-rule="evenodd" d="M3042.42 4847.33C3042.32 4847.56 3042.21 4847.68 3042.1 4847.68C3040.22 4847.68 3038.68 4810.76 3038.68 4765.21C3038.68 4719.66 3040.22 4682.74 3042.1 4682.74C3042.21 4682.74 3042.32 4682.86 3042.42 4683.09V4682.74H3129.36V4847.68H3042.42V4847.33Z" fill="#0E0E10"/>
<path d="M3042.42 4847.33H3046.42L3038.77 4845.69L3042.42 4847.33ZM3042.42 4683.09L3038.77 4684.73L3046.42 4683.09H3042.42ZM3042.42 4682.74V4678.74H3038.42V4682.74H3042.42ZM3129.36 4682.74H3133.36V4678.74H3129.36V4682.74ZM3129.36 4847.68V4851.68H3133.36V4847.68H3129.36ZM3042.42 4847.68H3038.42V4851.68H3042.42V4847.68ZM3038.77 4845.69C3038.8 4845.64 3038.95 4845.3 3039.29 4844.92C3039.62 4844.56 3040.56 4843.68 3042.1 4843.68V4851.68C3043.76 4851.68 3044.81 4850.75 3045.24 4850.26C3045.69 4849.76 3045.95 4849.25 3046.07 4848.96L3038.77 4845.69ZM3042.1 4843.68C3043.8 4843.68 3044.76 4844.72 3045.02 4845.04C3045.33 4845.41 3045.45 4845.73 3045.46 4845.74C3045.49 4845.81 3045.43 4845.69 3045.34 4845.21C3045.15 4844.32 3044.96 4842.86 3044.75 4840.81C3044.36 4836.75 3043.99 4830.8 3043.68 4823.36C3043.07 4808.51 3042.68 4787.95 3042.68 4765.21H3034.68C3034.68 4788.02 3035.07 4808.7 3035.69 4823.69C3036 4831.18 3036.37 4837.3 3036.79 4841.59C3037 4843.71 3037.23 4845.5 3037.5 4846.8C3037.62 4847.42 3037.79 4848.13 3038.05 4848.77C3038.17 4849.07 3038.41 4849.59 3038.83 4850.11C3039.21 4850.57 3040.29 4851.68 3042.1 4851.68V4843.68ZM3042.68 4765.21C3042.68 4742.47 3043.07 4721.91 3043.68 4707.06C3043.99 4699.62 3044.36 4693.67 3044.75 4689.61C3044.96 4687.56 3045.15 4686.1 3045.34 4685.21C3045.43 4684.73 3045.49 4684.6 3045.46 4684.67C3045.45 4684.69 3045.33 4685 3045.02 4685.38C3044.76 4685.7 3043.8 4686.74 3042.1 4686.74V4678.74C3040.29 4678.74 3039.21 4679.85 3038.83 4680.31C3038.41 4680.83 3038.17 4681.35 3038.05 4681.65C3037.79 4682.28 3037.62 4683 3037.5 4683.62C3037.23 4684.92 3037 4686.7 3036.79 4688.83C3036.37 4693.11 3036 4699.24 3035.69 4706.73C3035.07 4721.72 3034.68 4742.4 3034.68 4765.21H3042.68ZM3042.1 4686.74C3040.56 4686.74 3039.62 4685.86 3039.29 4685.5C3038.95 4685.11 3038.8 4684.78 3038.77 4684.73L3046.07 4681.45C3045.95 4681.17 3045.69 4680.65 3045.24 4680.15C3044.81 4679.67 3043.76 4678.74 3042.1 4678.74V4686.74ZM3046.42 4683.09V4682.74H3038.42V4683.09H3046.42ZM3042.42 4686.74H3129.36V4678.74H3042.42V4686.74ZM3125.36 4682.74V4847.68H3133.36V4682.74H3125.36ZM3129.36 4843.68H3042.42V4851.68H3129.36V4843.68ZM3046.42 4847.68V4847.33H3038.42V4847.68H3046.42Z" fill="#0E0E10"/>
<ellipse cx="3133.25" cy="4765.21" rx="24.6123" ry="82.4728" fill="#262626" stroke="#0E0E10" stroke-width="8"/>
<ellipse cx="3039.12" cy="4765.21" rx="24.6123" ry="82.4728" fill="#0E0E10" stroke="#0E0E10" stroke-width="8"/>
</svg>
