<svg width="6972" height="8151" viewBox="0 0 6972 8151" fill="none" xmlns="http://www.w3.org/2000/svg">
<g clip-path="url(#clip0_9_2)">
<path d="M3510 4085.5C3792 3506 4014 3392 4474 3251.5C4934 3111 4917.5 2407.5 5150.5 2142C5336.9 1929.6 5563.79 1995.7 5757 1806C6176.59 1394.03 5917.29 781.172 6020.5 323.5C6119.5 -115.5 6564.33 -416 6816.5 -552" stroke="#A02323" stroke-width="54"/>
<path d="M3510 4085.5C3792 3506 4014 3392 4474 3251.5C4934 3111 4917.5 2407.5 5150.5 2142C5336.9 1929.6 4812 945 4763.5 824C4763.5 824 4548.01 324.5 4508.5 186.5C4477.77 79.1834 4450 -52.5 4450 -52.5" stroke="#A02323" stroke-width="54"/>
<path d="M3510 4085.5C3792 3506 4014 3392 4474 3251.5C4934 3111 4907.5 2429 5140.5 2163.5C5282.23 2002 5079.5 1641.5 5014 1310.5C4948.5 979.5 5673.5 518.5 5278 -143.5" stroke="#A02323" stroke-width="54"/>
<path d="M3510 4085.5C3668.18 3760.44 3807.48 3581.85 3980.5 3462.89C4115.93 3369.77 4307.78 3034.85 4053 2702C3718.5 2265 3252 2527.5 2721 2010.5C2296.2 1596.9 2197 79.1667 2226 -260.5" stroke="#A02323" stroke-width="54"/>
<path d="M3510 4085.5C3668.18 3760.44 3807.48 3581.85 3980.5 3462.89C4115.93 3369.77 4307.78 3034.85 4053 2702C3718.5 2265 3252 2527.5 2721 2010.5C2582.03 1875.2 2477.91 1621.73 2401.72 1330C2245.02 729.962 2998 612.5 3042.5 -220" stroke="#A02323" stroke-width="54"/>
<path d="M3510 4085.5C3668.18 3760.45 3807.48 3581.85 3980.5 3462.89C4115.93 3369.77 4307.78 3034.86 4053 2702C3881.13 2477.46 3784.41 2464.32 3552 2408.5C3170.5 2408.5 3251 2797.5 2884 2797.5C2275 2797.5 2179.5 3274.5 2598 3414" stroke="#A02323" stroke-width="54"/>
<path d="M3510 4085.5C3668.18 3760.44 3807.48 3581.85 3980.5 3462.89C4115.93 3369.77 4307.78 3034.86 4053 2702C3881.13 2477.46 3784.41 2464.32 3552 2408.5C3170.5 2408.5 3251 2797.5 2884 2797.5C2420.33 2797.5 1796.52 2283.5 1880 1329C1880 545.5 1358 50.5 1043 -48.5" stroke="#A02323" stroke-width="54"/>
<path d="M3510 4085.5C3668.18 3760.44 3807.48 3581.85 3980.5 3462.89C4115.93 3369.77 4307.78 3034.86 4053 2702C3881.13 2477.46 3784.41 2464.32 3552 2408.5C3170.5 2408.5 3251 2797.5 2884 2797.5C2578.47 2797.5 2203.41 2574.32 2007 2149C1905.33 1928.85 2393.5 1292 2273 640" stroke="#A02323" stroke-width="54"/>
<path d="M3510 4085.5C3668.18 3760.44 3807.48 3581.85 3980.5 3462.89C4081.33 3393.57 4213.42 3190.23 4169.22 2953.5C4125.02 2716.77 4831.5 2100 4831.5 1369C4831.5 638 4481 562 4382 -489" stroke="#A02323" stroke-width="54"/>
<path d="M3510 4085.5C3668.18 3760.44 3807.48 3581.85 3980.5 3462.89C4081.33 3393.57 4213.42 3190.23 4169.22 2953.5C4148.24 2841.14 4296.37 2643.17 4457.81 2388C4636.5 2105.56 4261 1513 3771 1540C3281 1567 3066 2134 3306.5 2347" stroke="#A02323" stroke-width="54"/>
<path d="M3510 4085.5C3668.18 3760.45 3807.48 3581.85 3980.5 3462.89C4081.33 3393.57 4213.42 3190.23 4169.22 2953.5C4148.24 2841.14 4296.37 2643.17 4457.81 2388C4573.05 2205.85 4457.8 1894.73 4230 1703.98C4104.56 1598.95 4034.74 1218.33 4322 859C4610.59 498 4397 -301.5 4380.5 -368.5" stroke="#A02323" stroke-width="54"/>
<path d="M3510 4085.5C3668.18 3760.45 3807.48 3581.85 3980.5 3462.89C4081.33 3393.57 4213.42 3190.23 4169.22 2953.5C4148.24 2841.14 4296.37 2643.17 4457.81 2388C4573.05 2205.85 4457.8 1894.73 4230 1703.98C4104.56 1598.95 4046.86 1227.69 4322 859C4647 423.5 3092 885 3193 96.5" stroke="#A02323" stroke-width="54"/>
<path d="M3510 4085.5C3668.18 3760.45 3807.48 3581.85 3980.5 3462.89C4115.93 3369.77 4307.78 3034.85 4053 2702C3718.5 2265 3510 3037 3117.5 3273.5C2725 3510 2135 3462.89 1838 3098C1560.07 2756.54 1297.5 1881 -244 2106" stroke="#A02323" stroke-width="54"/>
<path d="M3510 4085.5C3668.18 3760.44 3807.48 3581.85 3980.5 3462.89C4115.93 3369.77 4307.78 3034.85 4053 2702C3718.5 2265 3510 3037 3117.5 3273.5C2725 3510 2135 3462.89 1838 3098C1666.44 2887.23 1500.74 2472.97 1036.5 2239.66C748.639 2094.98 -67 1100 304.5 -92" stroke="#A02323" stroke-width="54"/>
<path d="M3510 4085.5C3668.18 3760.44 3807.48 3581.85 3980.5 3462.89C4115.93 3369.77 4307.78 3034.85 4053 2702C3718.5 2265 3510 3037 3117.5 3273.5C2725 3510 2135 3462.89 1838 3098C1666.44 2887.23 1500.74 2472.97 1036.5 2239.66C945.552 2193.95 801.922 2063.36 659.692 1868.5C351.748 1446.6 1211 587.5 514 -299" stroke="#A02323" stroke-width="54"/>
<path d="M3510 4085.5C3668.18 3760.45 3807.48 3581.85 3980.5 3462.89C4115.93 3369.77 4307.78 3034.85 4053 2702C3718.5 2265 3510 3037 3117.5 3273.5C2725 3510 2135 3462.89 1838 3098C1730.74 2966.22 1625.77 2754.91 1448.7 2558C1342.55 2439.96 893.3 1441 1171 1137C1448.7 833 1875 1077.5 1875 1408" stroke="#A02323" stroke-width="54"/>
<path d="M3510 4085.5C3668.18 3760.44 3807.48 3581.85 3980.5 3462.89C4115.93 3369.77 4307.78 3034.85 4053 2702C3718.5 2265 3252 2527.5 2721 2010.5C2296.2 1596.9 3485.5 1508 3485.5 977C3485.5 554.5 3136 576.5 3187 125C3207.26 -54.3265 3502.33 -338.333 3747.5 -450" stroke="#A02323" stroke-width="54"/>
<path d="M3510 4085.5C3792 3506 4011.94 3385.07 4474 3251.5C4941 3116.5 5172.56 3910.96 5712.5 3873.5C6584 3813.04 6486.06 2654.5 6854.5 1950C7272.62 1150.5 8068.17 1133.83 8547 970.5" stroke="#A02323" stroke-width="54"/>
<path d="M3510 4085.5C3792 3506 4014 3392 4474 3251.5C4727.94 3173.94 4836.66 2924.81 4922.31 2672.5C4991.82 2467.76 5901.44 2733 6146.5 2285.5C6407.99 1808 6909.5 1851 6909.5 1851" stroke="#A02323" stroke-width="54"/>
<path d="M3510 4085.5C3792 3506 4014 3392 4474 3251.5C4727.94 3173.94 4836.66 2924.81 4922.31 2672.5C4991.82 2467.76 5901.44 2733 6146.5 2285.5C6407.99 1808 6005 882.5 6005 882.5" stroke="#A02323" stroke-width="54"/>
<path d="M3498.5 4080.5C3673.67 4146.67 3753.45 4272.62 4283 4233C4704 4201.5 4755 4583 5136 4644C5440.8 4692.8 5703 4241.54 6174.5 4163C7094.07 4009.81 7956.67 4585 8313 4555.5" stroke="#A02323" stroke-width="54"/>
<path d="M3498.5 4080.5C3673.67 4146.67 3753.45 4272.62 4283 4233C4704 4201.5 4755 4583 5136 4644C5440.8 4692.8 5703 4241.54 6174.5 4163C7094.07 4009.81 7209.17 3301.5 7565.5 3272" stroke="#A02323" stroke-width="54"/>
<path d="M3498.5 4080.5C3673.67 4146.67 3753.45 4272.62 4283 4233C4704 4201.5 4755 4583 5136 4644C5440.8 4692.8 5703 4241.54 6174.5 4163C7094.07 4009.81 6794.5 3217.5 6382 3384" stroke="#A02323" stroke-width="54"/>
<path d="M3498.5 4080.5C3673.67 4146.67 3753.45 4272.62 4283 4233C4704 4201.5 4951.47 4626.25 5253 4385.5C5635 4080.5 5411.4 3231.78 5786.5 2935.5C6231.5 2584 6557 2715 6739.5 2218.5" stroke="#A02323" stroke-width="54"/>
<path d="M3498.5 4080.5C3673.67 4146.67 3753.45 4272.62 4283 4233C4441 4221.18 4799.5 4080.5 4799.5 3793C4799.5 3505.5 4514.5 3278 4211 3342.5" stroke="#A02323" stroke-width="54"/>
</g>
<defs>
<clipPath id="clip0_9_2">
<rect width="6972" height="8151" fill="white"/>
</clipPath>
</defs>
</svg>
