<svg width="182" height="17" viewBox="0 0 182 17" fill="none" xmlns="http://www.w3.org/2000/svg">
<path d="M10.8 5.96C9.392 5.96 8.24 6.472 7.344 7.496C6.448 8.52 6 9.768 6 11.24V16.28C6 16.76 5.76 17 5.28 17C4.8 17 4.56 16.76 4.56 16.28V11.24C4.56 9.816 4.92 8.536 5.64 7.4C6.36 6.264 7.28 5.464 8.4 5C6 4.584 3.76 4.376 1.68 4.376C1.2 4.376 0.96 4.136 0.96 3.656C0.96 3.176 1.2 2.936 1.68 2.936C4.16 2.936 7.2 3.304 10.8 4.04C10.992 4.072 11.16 4.184 11.304 4.376C11.448 4.552 11.52 4.76 11.52 5C11.52 5.24 11.44 5.464 11.28 5.672C11.12 5.864 10.96 5.96 10.8 5.96ZM26.4593 15.56C26.4593 16.2 25.7233 16.52 24.2513 16.52C23.5633 16.52 23.0273 16.368 22.6433 16.064C22.2753 15.76 22.0913 15.232 22.0913 14.48C22.0913 13.728 22.0273 13.08 21.8993 12.536C21.7713 11.992 21.5953 11.72 21.3713 11.72C20.6993 11.72 20.0593 12.344 19.4512 13.592C19.1952 14.104 18.9232 14.624 18.6352 15.152C18.3473 15.664 17.9633 16.104 17.4833 16.472C17.0193 16.824 16.4753 17 15.8513 17C14.4112 17 13.6912 15.608 13.6912 12.824C13.6912 10.824 13.9072 8.88 14.3392 6.992C14.7872 5.104 15.4032 3.552 16.1873 2.336C16.9872 1.104 17.8273 0.487999 18.7073 0.487999C19.5873 0.487999 20.2513 0.808 20.6993 1.448C21.1473 2.088 21.3713 2.92 21.3713 3.944C21.3713 4.952 21.0833 5.952 20.5072 6.944C19.9472 7.92 19.2592 8.712 18.4432 9.32C18.0433 9.64 17.7393 9.8 17.5312 9.8C17.0512 9.8 16.8112 9.56 16.8112 9.08C16.8112 8.888 17.0832 8.584 17.6273 8.168C18.1712 7.752 18.6913 7.16 19.1873 6.392C19.6833 5.608 19.9313 4.696 19.9313 3.656C19.9313 3.224 19.8353 2.832 19.6433 2.48C19.4513 2.112 19.1473 1.928 18.7312 1.928C18.2513 1.928 17.7313 2.432 17.1712 3.44C16.6272 4.432 16.1472 5.792 15.7312 7.52C15.3312 9.248 15.1312 11.024 15.1312 12.848C15.1312 14.656 15.3712 15.56 15.8513 15.56C16.5232 15.56 17.1632 14.936 17.7713 13.688C18.0273 13.176 18.2993 12.664 18.5873 12.152C18.8753 11.624 19.2513 11.184 19.7153 10.832C20.1953 10.464 20.7473 10.28 21.3713 10.28C22.8113 10.28 23.5313 11.64 23.5313 14.36C23.5313 14.84 23.7633 15.08 24.2273 15.08C24.7073 15.08 25.0673 15.04 25.3073 14.96C25.5473 14.88 25.6913 14.84 25.7393 14.84C26.2193 14.84 26.4593 15.08 26.4593 15.56ZM28.4762 15.608C28.4602 15.608 28.3402 15.672 28.1162 15.8C27.5402 16.12 27.1162 16.28 26.8442 16.28C26.3642 16.28 26.1242 16.04 26.1242 15.56C26.1242 15.256 26.3642 15.008 26.8442 14.816C26.9242 14.784 27.1162 14.688 27.4202 14.528C27.7242 14.368 27.9002 14.272 27.9482 14.24C27.8842 14.096 27.8522 13.88 27.8522 13.592C27.8522 12.152 28.3562 10.92 29.3642 9.896C30.3722 8.872 31.2922 8.36 32.1242 8.36C32.9562 8.36 33.6122 8.56 34.0922 8.96C34.5722 9.344 34.8122 9.816 34.8122 10.376C34.8122 10.92 34.6842 11.392 34.4282 11.792C34.1722 12.192 33.7722 12.584 33.2282 12.968C32.4762 13.512 31.3802 14.144 29.9402 14.864C30.5802 15.328 31.4682 15.56 32.6042 15.56C33.7402 15.56 34.8602 15.376 35.9642 15.008C36.3002 14.896 36.4922 14.84 36.5402 14.84C37.0202 14.84 37.2602 15.08 37.2602 15.56C37.2602 15.912 37.0202 16.168 36.5402 16.328C35.1962 16.776 33.9002 17 32.6522 17C30.8762 17 29.4842 16.536 28.4762 15.608ZM29.2922 13.592C32.0122 12.232 33.3722 11.208 33.3722 10.52C33.3722 10.04 32.9722 9.8 32.1722 9.8C31.6922 9.8 31.0922 10.184 30.3722 10.952C29.6522 11.704 29.2922 12.584 29.2922 13.592ZM55.2328 16.28C54.2088 16.28 53.3128 15.856 52.5448 15.008C51.7768 14.16 51.3928 13.12 51.3928 11.888C51.3928 10.64 51.6488 9.432 52.1608 8.264C52.6728 7.096 53.3128 6.136 54.0808 5.384C54.8488 4.632 55.6568 4.04 56.5048 3.608C57.3528 3.16 58.0808 2.936 58.6888 2.936C59.2968 2.936 59.8328 3.064 60.2968 3.32C60.7608 3.576 60.9928 3.848 60.9928 4.136C60.9928 4.616 60.7528 4.856 60.2728 4.856C60.1288 4.856 59.9128 4.776 59.6248 4.616C59.3528 4.456 59.0248 4.376 58.6408 4.376C58.2728 4.376 57.7528 4.56 57.0808 4.928C56.4088 5.296 55.7528 5.792 55.1128 6.416C54.4728 7.04 53.9288 7.848 53.4808 8.84C53.0488 9.832 52.8328 10.816 52.8328 11.792C52.8328 12.752 53.0648 13.504 53.5288 14.048C53.9928 14.576 54.5608 14.84 55.2328 14.84C56.6088 14.84 58.0408 14.648 59.5288 14.264C61.0168 13.864 62.2328 13.28 63.1768 12.512C63.6408 12.144 63.9528 11.96 64.1128 11.96C64.5928 11.96 64.8328 12.2 64.8328 12.68C64.8328 12.84 64.7128 13.04 64.4728 13.28C64.2328 13.52 64.1128 13.72 64.1128 13.88C64.1128 14.36 64.4808 14.76 65.2168 15.08C65.9688 15.4 66.7688 15.56 67.6168 15.56C68.4808 15.56 69.2728 15.4 69.9928 15.08C70.7288 14.76 71.0968 14.296 71.0968 13.688C71.0968 13.08 70.8408 12.6 70.3288 12.248C69.8168 11.896 69.2168 11.72 68.5288 11.72C68.3528 11.72 68.1048 11.76 67.7848 11.84C67.4808 11.92 67.2968 11.96 67.2328 11.96C66.7528 11.96 66.5128 11.72 66.5128 11.24C66.5128 11 66.7208 10.784 67.1368 10.592C67.5528 10.384 68.0168 10.28 68.5288 10.28C69.7768 10.28 70.7528 10.624 71.4568 11.312C72.1608 12 72.5128 12.832 72.5128 13.808C72.5128 14.784 72.0328 15.56 71.0728 16.136C70.1128 16.712 68.9928 17 67.7128 17C66.4328 17 65.3288 16.752 64.4008 16.256C63.4888 15.744 62.9448 15.16 62.7688 14.504C60.5128 15.688 58.0008 16.28 55.2328 16.28ZM80.8159 10.448C82.7999 8.464 83.7919 6.488 83.7919 4.52C83.7919 2.792 83.3919 1.928 82.5919 1.928C82.1759 1.928 81.7599 2.512 81.3439 3.68C80.8959 4.928 80.6719 6.488 80.6719 8.36C80.6719 9.144 80.7199 9.84 80.8159 10.448ZM89.4559 11.912C90.3519 11.24 91.0719 10.464 91.6159 9.584C92.1599 8.704 92.4319 7.864 92.4319 7.064C92.4319 6.264 92.3679 5.624 92.2399 5.144C92.1119 4.664 91.9519 4.328 91.7599 4.136C91.4079 3.784 91.0719 3.608 90.7519 3.608C90.4959 3.608 90.2559 3.76 90.0319 4.064C89.8239 4.352 89.6559 4.664 89.5279 5C89.2239 5.8 89.0719 6.904 89.0719 8.312C89.0719 9.72 89.1999 10.92 89.4559 11.912ZM80.1919 12.944C78.8799 14.016 77.5279 14.928 76.1359 15.68C75.3999 16.08 74.8959 16.28 74.6239 16.28C74.1439 16.28 73.9039 16.04 73.9039 15.56C73.9039 15.256 74.1199 15.024 74.5519 14.864C74.9839 14.704 75.6799 14.328 76.6399 13.736C77.5999 13.144 78.5919 12.416 79.6159 11.552C79.3599 10.624 79.2319 9.56 79.2319 8.36C79.2319 6.072 79.5519 4.192 80.1919 2.72C80.8319 1.232 81.6079 0.487999 82.5199 0.487999C84.3279 0.487999 85.2319 1.792 85.2319 4.4C85.2319 7.008 83.9199 9.536 81.2959 11.984C81.8559 13.088 82.9279 13.64 84.5119 13.64C85.7439 13.64 86.9759 13.32 88.2079 12.68C87.8239 11.528 87.6319 10.008 87.6319 8.12C87.6319 6.232 87.9279 4.768 88.5199 3.728C89.1119 2.688 89.8319 2.168 90.6799 2.168C91.5279 2.168 92.2719 2.544 92.9119 3.296C93.5519 4.032 93.8719 5.24 93.8719 6.92C93.8719 8.056 93.5199 9.2 92.8159 10.352C92.1119 11.488 91.1759 12.456 90.0079 13.256C90.5199 14.168 91.1119 14.784 91.7839 15.104C92.4559 15.408 93.3919 15.56 94.5919 15.56C94.9919 15.56 95.6079 15.44 96.4399 15.2C97.2719 14.96 97.7119 14.84 97.7599 14.84C98.2399 14.84 98.4799 15.08 98.4799 15.56C98.4799 15.912 98.2399 16.168 97.7599 16.328C96.4159 16.776 95.3599 17 94.5919 17C93.1519 17 91.9759 16.776 91.0639 16.328C90.1519 15.88 89.3919 15.104 88.7839 14C87.3759 14.72 85.9519 15.08 84.5119 15.08C82.4799 15.08 81.0399 14.368 80.1919 12.944ZM112.591 11.648C112.015 12.88 111.399 13.88 110.743 14.648C110.087 15.416 109.503 15.8 108.991 15.8C107.919 15.8 107.215 15.024 106.879 13.472C106.543 14.048 106.127 14.576 105.631 15.056C104.639 16.032 103.519 16.52 102.271 16.52C101.631 16.52 101.071 16.28 100.591 15.8C100.111 15.32 99.8709 14.76 99.8709 14.12C99.8709 12.552 100.439 11.2 101.575 10.064C102.711 8.928 103.919 8.36 105.199 8.36C105.919 8.36 106.535 8.496 107.047 8.768C107.575 9.024 107.839 9.288 107.839 9.56C107.839 10.04 107.599 10.28 107.119 10.28C107.023 10.28 106.791 10.2 106.423 10.04C106.055 9.88 105.647 9.8 105.199 9.8C104.367 9.8 103.511 10.216 102.631 11.048C101.751 11.88 101.311 12.904 101.311 14.12C101.311 14.36 101.407 14.584 101.599 14.792C101.791 14.984 102.031 15.08 102.319 15.08C102.623 15.08 102.927 15.024 103.231 14.912C103.551 14.8 103.815 14.672 104.023 14.528C104.231 14.384 104.447 14.192 104.671 13.952C105.007 13.616 105.311 13.24 105.583 12.824L105.823 12.44C106.079 12.072 106.231 11.848 106.279 11.768C106.343 11.672 106.407 11.576 106.471 11.48C106.551 11.384 106.607 11.312 106.639 11.264C106.687 11.216 106.735 11.168 106.783 11.12C106.863 11.04 106.999 11 107.191 11C107.399 11 107.567 11.104 107.695 11.312C107.839 11.504 107.975 11.888 108.103 12.464C108.359 13.728 108.655 14.36 108.991 14.36C109.103 14.36 109.287 14.208 109.543 13.904C109.815 13.6 110.119 13.16 110.455 12.584C110.791 12.008 111.119 11.368 111.439 10.664C112.223 8.984 112.711 7.304 112.903 5.624C112.903 5.576 112.919 5.36 112.951 4.976C112.999 4.576 113.055 4.024 113.119 3.32C113.183 2.616 113.247 1.912 113.311 1.208C113.359 0.727999 113.599 0.487999 114.031 0.487999C114.511 0.487999 114.751 0.727999 114.751 1.208C114.751 1.272 114.735 1.432 114.703 1.688C114.255 6.168 114.031 9.592 114.031 11.96C114.031 12.728 114.111 13.288 114.271 13.64C116.031 11.88 117.711 11 119.311 11C119.791 11 120.031 11.24 120.031 11.72C120.031 12.2 119.759 12.44 119.215 12.44C118.687 12.44 118.111 12.608 117.487 12.944C116.879 13.264 116.375 13.616 115.975 14C115.591 14.384 115.231 14.744 114.895 15.08C114.575 15.4 114.367 15.56 114.271 15.56C113.679 15.56 113.247 15.168 112.975 14.384C112.719 13.584 112.591 12.672 112.591 11.648ZM123.773 15.608C123.757 15.608 123.637 15.672 123.413 15.8C122.837 16.12 122.413 16.28 122.141 16.28C121.661 16.28 121.421 16.04 121.421 15.56C121.421 15.256 121.661 15.008 122.141 14.816C122.221 14.784 122.413 14.688 122.717 14.528C123.021 14.368 123.197 14.272 123.245 14.24C123.181 14.096 123.149 13.88 123.149 13.592C123.149 12.152 123.653 10.92 124.661 9.896C125.669 8.872 126.589 8.36 127.421 8.36C128.253 8.36 128.909 8.56 129.389 8.96C129.869 9.344 130.109 9.816 130.109 10.376C130.109 10.92 129.981 11.392 129.725 11.792C129.469 12.192 129.069 12.584 128.525 12.968C127.773 13.512 126.677 14.144 125.237 14.864C125.877 15.328 126.765 15.56 127.901 15.56C129.037 15.56 130.157 15.376 131.261 15.008C131.597 14.896 131.789 14.84 131.837 14.84C132.317 14.84 132.557 15.08 132.557 15.56C132.557 15.912 132.317 16.168 131.837 16.328C130.493 16.776 129.197 17 127.949 17C126.173 17 124.781 16.536 123.773 15.608ZM124.589 13.592C127.309 12.232 128.669 11.208 128.669 10.52C128.669 10.04 128.269 9.8 127.469 9.8C126.989 9.8 126.389 10.184 125.669 10.952C124.949 11.704 124.589 12.584 124.589 13.592ZM134.606 13.784C134.638 13.736 134.71 13.392 134.822 12.752C134.95 12.112 135.094 11.488 135.254 10.88C135.43 10.256 135.734 9.68 136.166 9.152C136.614 8.624 137.15 8.36 137.774 8.36C138.99 8.36 140.014 8.68 140.846 9.32C141.694 9.944 142.118 10.752 142.118 11.744C142.118 12.736 142.254 13.624 142.526 14.408C142.798 15.176 143.158 15.56 143.606 15.56C143.91 15.56 144.286 15.464 144.734 15.272C145.454 14.984 145.878 14.84 146.006 14.84C146.486 14.84 146.726 15.08 146.726 15.56C146.726 15.912 146.486 16.168 146.006 16.328C145.11 16.776 144.302 17 143.582 17C142.878 17 142.294 16.704 141.83 16.112C141.366 15.504 141.054 14.832 140.894 14.096C140.75 13.36 140.678 12.568 140.678 11.72C140.678 11.16 140.406 10.704 139.862 10.352C139.318 9.984 138.63 9.8 137.798 9.8C137.126 9.8 136.598 10.872 136.214 13.016C136.054 13.848 135.942 14.328 135.878 14.456C135.606 15.016 134.862 15.56 133.646 16.088C133.358 16.216 133.126 16.28 132.95 16.28C132.47 16.28 132.23 16.04 132.23 15.56C132.23 15.256 132.47 15.008 132.95 14.816C133.894 14.432 134.446 14.088 134.606 13.784ZM157.959 15.032C157.959 15.032 158.215 14.968 158.727 14.84C159.207 14.84 159.447 15.08 159.447 15.56C159.447 15.912 159.207 16.168 158.727 16.328C158.439 16.424 158.151 16.472 157.863 16.472C157.591 16.472 157.327 16.408 157.071 16.28C156.815 16.152 156.615 15.96 156.471 15.704C156.231 15.288 156.055 14.84 155.943 14.36L155.847 13.952C155.575 14.416 154.911 14.96 153.855 15.584C152.815 16.208 151.703 16.52 150.519 16.52C149.879 16.52 149.319 16.28 148.839 15.8C148.359 15.32 148.119 14.76 148.119 14.12C148.119 12.568 148.759 11.224 150.039 10.088C151.319 8.936 152.615 8.36 153.927 8.36C154.647 8.36 155.263 8.496 155.775 8.768C156.303 9.024 156.567 9.288 156.567 9.56C156.567 10.04 156.327 10.28 155.847 10.28C155.751 10.28 155.519 10.2 155.151 10.04C154.783 9.88 154.375 9.8 153.927 9.8C153.063 9.8 152.119 10.224 151.095 11.072C150.071 11.904 149.559 12.92 149.559 14.12C149.559 14.36 149.655 14.584 149.847 14.792C150.055 14.984 150.279 15.08 150.519 15.08C151.463 15.08 152.343 14.832 153.159 14.336C153.975 13.824 154.495 13.408 154.719 13.088C154.943 12.752 155.127 12.448 155.271 12.176C155.415 11.904 155.519 11.728 155.583 11.648C155.663 11.552 155.823 11.504 156.063 11.504C156.303 11.504 156.487 11.592 156.615 11.768C156.743 11.944 156.863 12.224 156.975 12.608C157.087 12.976 157.199 13.392 157.311 13.856C157.423 14.32 157.519 14.632 157.599 14.792C157.695 14.952 157.815 15.032 157.959 15.032ZM165.075 8.528C165.491 8.576 165.963 8.6 166.491 8.6C167.035 8.6 167.595 8.48 168.171 8.24C168.763 7.984 169.211 7.688 169.515 7.352C169.819 7 170.067 6.592 170.259 6.128C170.547 5.424 170.691 4.752 170.691 4.112C170.691 3.456 170.587 2.928 170.379 2.528C170.187 2.128 169.891 1.928 169.491 1.928C168.755 1.928 167.939 2.56 167.043 3.824C166.147 5.088 165.491 6.656 165.075 8.528ZM162.771 8.12L163.659 8.312C164.139 6.136 164.931 4.288 166.035 2.768C167.139 1.248 168.291 0.487999 169.491 0.487999C170.307 0.487999 170.947 0.823999 171.411 1.496C171.891 2.168 172.131 2.904 172.131 3.704C172.131 4.504 172.019 5.248 171.795 5.936C171.571 6.608 171.227 7.264 170.763 7.904C170.315 8.528 169.691 9.04 168.891 9.44C168.091 9.84 167.179 10.04 166.155 10.04C165.899 10.04 165.451 10.008 164.811 9.944C164.731 10.664 164.691 11.336 164.691 11.96C164.691 13.112 164.979 14 165.555 14.624C166.147 15.248 166.835 15.56 167.619 15.56C168.403 15.56 169.091 15.416 169.683 15.128C170.275 14.84 170.779 14.488 171.195 14.072C171.611 13.64 172.059 13.176 172.539 12.68C173.035 12.184 173.515 11.728 173.979 11.312C174.443 10.88 175.011 10.52 175.683 10.232C176.371 9.944 177.107 9.8 177.891 9.8C178.995 9.8 179.947 10.208 180.747 11.024C181.563 11.824 181.971 12.72 181.971 13.712C181.971 14.688 181.667 15.48 181.059 16.088C180.451 16.696 179.755 17 178.971 17C178.187 17 177.491 16.8 176.883 16.4C176.275 16 175.971 15.64 175.971 15.32C175.971 14.84 176.211 14.6 176.691 14.6C176.819 14.6 177.083 14.76 177.483 15.08C177.899 15.4 178.347 15.56 178.827 15.56C179.307 15.56 179.707 15.4 180.027 15.08C180.363 14.744 180.531 14.344 180.531 13.88C180.531 13.16 180.267 12.544 179.739 12.032C179.227 11.504 178.627 11.24 177.939 11.24C177.251 11.24 176.611 11.384 176.019 11.672C175.427 11.96 174.923 12.32 174.507 12.752C174.091 13.168 173.635 13.624 173.139 14.12C172.659 14.616 172.187 15.08 171.723 15.512C171.259 15.928 170.683 16.28 169.995 16.568C169.323 16.856 168.595 17 167.811 17C166.499 17 165.411 16.544 164.547 15.632C163.683 14.704 163.251 13.48 163.251 11.96C163.251 11.192 163.299 10.44 163.395 9.704L162.771 9.56C162.291 9.432 162.051 9.192 162.051 8.84C162.051 8.36 162.291 8.12 162.771 8.12Z" fill="#F7F3EA"/>
</svg>
