<svg width="755" height="69" viewBox="0 0 755 69" fill="none" xmlns="http://www.w3.org/2000/svg">
<path d="M41 23C35.1333 23 30.3333 25.1333 26.6 29.4C22.8667 33.6667 21 38.8667 21 45V66C21 68 20 69 18 69C16 69 15 68 15 66V45C15 39.0667 16.5 33.7333 19.5 29C22.5 24.2667 26.3333 20.9333 31 19C21 17.2667 11.6667 16.4 3 16.4C1 16.4 2.83122e-07 15.4 2.83122e-07 13.4C2.83122e-07 11.4 1 10.4 3 10.4C13.3333 10.4 26 11.9333 41 15C41.8 15.1333 42.5 15.6 43.1 16.4C43.7 17.1333 44 18 44 19C44 20 43.6667 20.9333 43 21.8C42.3333 22.6 41.6667 23 41 23ZM106.247 63C106.247 65.6667 103.18 67 97.0469 67C94.1802 67 91.9469 66.3667 90.3469 65.1C88.8135 63.8333 88.0469 61.6333 88.0469 58.5C88.0469 55.3667 87.7802 52.6667 87.2469 50.4C86.7135 48.1333 85.9802 47 85.0469 47C82.2469 47 79.5802 49.6 77.0469 54.8C75.9802 56.9333 74.8469 59.1 73.6469 61.3C72.4469 63.4333 70.8469 65.2667 68.8469 66.8C66.9135 68.2667 64.6469 69 62.0469 69C56.0469 69 53.0469 63.2 53.0469 51.6C53.0469 43.2667 53.9469 35.1667 55.7469 27.3C57.6135 19.4333 60.1802 12.9667 63.4469 7.9C66.7802 2.76667 70.2802 0.199998 73.9469 0.199998C77.6135 0.199998 80.3802 1.53333 82.2469 4.2C84.1135 6.86666 85.0469 10.3333 85.0469 14.6C85.0469 18.8 83.8469 22.9667 81.4469 27.1C79.1135 31.1667 76.2469 34.4667 72.8469 37C71.1802 38.3333 69.9135 39 69.0469 39C67.0469 39 66.0469 38 66.0469 36C66.0469 35.2 67.1802 33.9333 69.4469 32.2C71.7135 30.4667 73.8802 28 75.9469 24.8C78.0135 21.5333 79.0469 17.7333 79.0469 13.4C79.0469 11.6 78.6469 9.96667 77.8469 8.5C77.0469 6.96666 75.7802 6.2 74.0469 6.2C72.0469 6.2 69.8802 8.3 67.5469 12.5C65.2802 16.6333 63.2802 22.3 61.5469 29.5C59.8802 36.7 59.0469 44.1 59.0469 51.7C59.0469 59.2333 60.0469 63 62.0469 63C64.8469 63 67.5135 60.4 70.0469 55.2C71.1135 53.0667 72.2469 50.9333 73.4469 48.8C74.6469 46.6 76.2135 44.7667 78.1469 43.3C80.1469 41.7667 82.4469 41 85.0469 41C91.0469 41 94.0469 46.6667 94.0469 58C94.0469 60 95.0135 61 96.9469 61C98.9469 61 100.447 60.8333 101.447 60.5C102.447 60.1667 103.047 60 103.247 60C105.247 60 106.247 61 106.247 63ZM114.651 63.2C114.584 63.2 114.084 63.4667 113.151 64C110.751 65.3333 108.984 66 107.851 66C105.851 66 104.851 65 104.851 63C104.851 61.7333 105.851 60.7 107.851 59.9C108.184 59.7667 108.984 59.3667 110.251 58.7C111.517 58.0333 112.251 57.6333 112.451 57.5C112.184 56.9 112.051 56 112.051 54.8C112.051 48.8 114.151 43.6667 118.351 39.4C122.551 35.1333 126.384 33 129.851 33C133.317 33 136.051 33.8333 138.051 35.5C140.051 37.1 141.051 39.0667 141.051 41.4C141.051 43.6667 140.517 45.6333 139.451 47.3C138.384 48.9667 136.717 50.6 134.451 52.2C131.317 54.4667 126.751 57.1 120.751 60.1C123.417 62.0333 127.117 63 131.851 63C136.584 63 141.251 62.2333 145.851 60.7C147.251 60.2333 148.051 60 148.251 60C150.251 60 151.251 61 151.251 63C151.251 64.4667 150.251 65.5333 148.251 66.2C142.651 68.0667 137.251 69 132.051 69C124.651 69 118.851 67.0667 114.651 63.2ZM118.051 54.8C129.384 49.1333 135.051 44.8667 135.051 42C135.051 40 133.384 39 130.051 39C128.051 39 125.551 40.6 122.551 43.8C119.551 46.9333 118.051 50.6 118.051 54.8ZM226.137 66C221.87 66 218.137 64.2333 214.937 60.7C211.737 57.1667 210.137 52.8333 210.137 47.7C210.137 42.5 211.203 37.4667 213.337 32.6C215.47 27.7333 218.137 23.7333 221.337 20.6C224.537 17.4667 227.903 15 231.437 13.2C234.97 11.3333 238.003 10.4 240.537 10.4C243.07 10.4 245.303 10.9333 247.237 12C249.17 13.0667 250.137 14.2 250.137 15.4C250.137 17.4 249.137 18.4 247.137 18.4C246.537 18.4 245.637 18.0667 244.437 17.4C243.303 16.7333 241.937 16.4 240.337 16.4C238.803 16.4 236.637 17.1667 233.837 18.7C231.037 20.2333 228.303 22.3 225.637 24.9C222.97 27.5 220.703 30.8667 218.837 35C217.037 39.1333 216.137 43.2333 216.137 47.3C216.137 51.3 217.103 54.4333 219.037 56.7C220.97 58.9 223.337 60 226.137 60C231.87 60 237.837 59.2 244.037 57.6C250.237 55.9333 255.303 53.5 259.237 50.3C261.17 48.7667 262.47 48 263.137 48C265.137 48 266.137 49 266.137 51C266.137 51.6667 265.637 52.5 264.637 53.5C263.637 54.5 263.137 55.3333 263.137 56C263.137 58 264.67 59.6667 267.737 61C270.87 62.3333 274.203 63 277.737 63C281.337 63 284.637 62.3333 287.637 61C290.703 59.6667 292.237 57.7333 292.237 55.2C292.237 52.6667 291.17 50.6667 289.037 49.2C286.903 47.7333 284.403 47 281.537 47C280.803 47 279.77 47.1667 278.437 47.5C277.17 47.8333 276.403 48 276.137 48C274.137 48 273.137 47 273.137 45C273.137 44 274.003 43.1 275.737 42.3C277.47 41.4333 279.403 41 281.537 41C286.737 41 290.803 42.4333 293.737 45.3C296.67 48.1667 298.137 51.6333 298.137 55.7C298.137 59.7667 296.137 63 292.137 65.4C288.137 67.8 283.47 69 278.137 69C272.803 69 268.203 67.9667 264.337 65.9C260.537 63.7667 258.27 61.3333 257.537 58.6C248.137 63.5333 237.67 66 226.137 66ZM332.733 41.7C340.999 33.4333 345.133 25.2 345.133 17C345.133 9.8 343.466 6.2 340.133 6.2C338.399 6.2 336.666 8.63333 334.933 13.5C333.066 18.7 332.133 25.2 332.133 33C332.133 36.2667 332.333 39.1667 332.733 41.7ZM368.733 47.8C372.466 45 375.466 41.7667 377.733 38.1C379.999 34.4333 381.133 30.9333 381.133 27.6C381.133 24.2667 380.866 21.6 380.333 19.6C379.799 17.6 379.133 16.2 378.333 15.4C376.866 13.9333 375.466 13.2 374.133 13.2C373.066 13.2 372.066 13.8333 371.133 15.1C370.266 16.3 369.566 17.6 369.033 19C367.766 22.3333 367.133 26.9333 367.133 32.8C367.133 38.6667 367.666 43.6667 368.733 47.8ZM330.133 52.1C324.666 56.5667 319.033 60.3667 313.233 63.5C310.166 65.1667 308.066 66 306.933 66C304.933 66 303.933 65 303.933 63C303.933 61.7333 304.833 60.7667 306.633 60.1C308.433 59.4333 311.333 57.8667 315.333 55.4C319.333 52.9333 323.466 49.9 327.733 46.3C326.666 42.4333 326.133 38 326.133 33C326.133 23.4667 327.466 15.6333 330.133 9.5C332.799 3.3 336.033 0.199998 339.833 0.199998C347.366 0.199998 351.133 5.63333 351.133 16.5C351.133 27.3667 345.666 37.9 334.733 48.1C337.066 52.7 341.533 55 348.133 55C353.266 55 358.399 53.6667 363.533 51C361.933 46.2 361.133 39.8667 361.133 32C361.133 24.1333 362.366 18.0333 364.833 13.7C367.299 9.36666 370.299 7.2 373.833 7.2C377.366 7.2 380.466 8.76666 383.133 11.9C385.799 14.9667 387.133 20 387.133 27C387.133 31.7333 385.666 36.5 382.733 41.3C379.799 46.0333 375.899 50.0667 371.033 53.4C373.166 57.2 375.633 59.7667 378.433 61.1C381.233 62.3667 385.133 63 390.133 63C391.799 63 394.366 62.5 397.833 61.5C401.299 60.5 403.133 60 403.333 60C405.333 60 406.333 61 406.333 63C406.333 64.4667 405.333 65.5333 403.333 66.2C397.733 68.0667 393.333 69 390.133 69C384.133 69 379.233 68.0667 375.433 66.2C371.633 64.3333 368.466 61.1 365.933 56.5C360.066 59.5 354.133 61 348.133 61C339.666 61 333.666 58.0333 330.133 52.1ZM465.129 46.7C462.729 51.8333 460.162 56 457.429 59.2C454.696 62.4 452.262 64 450.129 64C445.662 64 442.729 60.7667 441.329 54.3C439.929 56.7 438.196 58.9 436.129 60.9C431.996 64.9667 427.329 67 422.129 67C419.462 67 417.129 66 415.129 64C413.129 62 412.129 59.6667 412.129 57C412.129 50.4667 414.496 44.8333 419.229 40.1C423.962 35.3667 428.996 33 434.329 33C437.329 33 439.896 33.5667 442.029 34.7C444.229 35.7667 445.329 36.8667 445.329 38C445.329 40 444.329 41 442.329 41C441.929 41 440.962 40.6667 439.429 40C437.896 39.3333 436.196 39 434.329 39C430.862 39 427.296 40.7333 423.629 44.2C419.962 47.6667 418.129 51.9333 418.129 57C418.129 58 418.529 58.9333 419.329 59.8C420.129 60.6 421.129 61 422.329 61C423.596 61 424.862 60.7667 426.129 60.3C427.462 59.8333 428.562 59.3 429.429 58.7C430.296 58.1 431.196 57.3 432.129 56.3C433.529 54.9 434.796 53.3333 435.929 51.6L436.929 50C437.996 48.4667 438.629 47.5333 438.829 47.2C439.096 46.8 439.362 46.4 439.629 46C439.962 45.6 440.196 45.3 440.329 45.1C440.529 44.9 440.729 44.7 440.929 44.5C441.262 44.1667 441.829 44 442.629 44C443.496 44 444.196 44.4333 444.729 45.3C445.329 46.1 445.896 47.7 446.429 50.1C447.496 55.3667 448.729 58 450.129 58C450.596 58 451.362 57.3667 452.429 56.1C453.562 54.8333 454.829 53 456.229 50.6C457.629 48.2 458.996 45.5333 460.329 42.6C463.596 35.6 465.629 28.6 466.429 21.6C466.429 21.4 466.496 20.5 466.629 18.9C466.829 17.2333 467.062 14.9333 467.329 12C467.596 9.06666 467.862 6.13333 468.129 3.19999C468.329 1.2 469.329 0.199998 471.129 0.199998C473.129 0.199998 474.129 1.2 474.129 3.19999C474.129 3.46666 474.062 4.13333 473.929 5.2C472.062 23.8667 471.129 38.1333 471.129 48C471.129 51.2 471.462 53.5333 472.129 55C479.462 47.6667 486.462 44 493.129 44C495.129 44 496.129 45 496.129 47C496.129 49 494.996 50 492.729 50C490.529 50 488.129 50.7 485.529 52.1C482.996 53.4333 480.896 54.9 479.229 56.5C477.629 58.1 476.129 59.6 474.729 61C473.396 62.3333 472.529 63 472.129 63C469.662 63 467.862 61.3667 466.729 58.1C465.662 54.7667 465.129 50.9667 465.129 46.7ZM511.721 63.2C511.654 63.2 511.154 63.4667 510.221 64C507.821 65.3333 506.054 66 504.921 66C502.921 66 501.921 65 501.921 63C501.921 61.7333 502.921 60.7 504.921 59.9C505.254 59.7667 506.054 59.3667 507.321 58.7C508.588 58.0333 509.321 57.6333 509.521 57.5C509.254 56.9 509.121 56 509.121 54.8C509.121 48.8 511.221 43.6667 515.421 39.4C519.621 35.1333 523.454 33 526.921 33C530.388 33 533.121 33.8333 535.121 35.5C537.121 37.1 538.121 39.0667 538.121 41.4C538.121 43.6667 537.588 45.6333 536.521 47.3C535.454 48.9667 533.788 50.6 531.521 52.2C528.388 54.4667 523.821 57.1 517.821 60.1C520.488 62.0333 524.188 63 528.921 63C533.654 63 538.321 62.2333 542.921 60.7C544.321 60.2333 545.121 60 545.321 60C547.321 60 548.321 61 548.321 63C548.321 64.4667 547.321 65.5333 545.321 66.2C539.721 68.0667 534.321 69 529.121 69C521.721 69 515.921 67.0667 511.721 63.2ZM515.121 54.8C526.454 49.1333 532.121 44.8667 532.121 42C532.121 40 530.454 39 527.121 39C525.121 39 522.621 40.6 519.621 43.8C516.621 46.9333 515.121 50.6 515.121 54.8ZM556.86 55.6C556.993 55.4 557.293 53.9667 557.76 51.3C558.293 48.6333 558.893 46.0333 559.56 43.5C560.293 40.9 561.56 38.5 563.36 36.3C565.227 34.1 567.46 33 570.06 33C575.127 33 579.393 34.3333 582.86 37C586.393 39.6 588.16 42.9667 588.16 47.1C588.16 51.2333 588.727 54.9333 589.86 58.2C590.993 61.4 592.493 63 594.36 63C595.627 63 597.193 62.6 599.06 61.8C602.06 60.6 603.827 60 604.36 60C606.36 60 607.36 61 607.36 63C607.36 64.4667 606.36 65.5333 604.36 66.2C600.627 68.0667 597.26 69 594.26 69C591.327 69 588.893 67.7667 586.96 65.3C585.027 62.7667 583.727 59.9667 583.06 56.9C582.46 53.8333 582.16 50.5333 582.16 47C582.16 44.6667 581.027 42.7667 578.76 41.3C576.493 39.7667 573.627 39 570.16 39C567.36 39 565.16 43.4667 563.56 52.4C562.893 55.8667 562.427 57.8667 562.16 58.4C561.027 60.7333 557.927 63 552.86 65.2C551.66 65.7333 550.693 66 549.96 66C547.96 66 546.96 65 546.96 63C546.96 61.7333 547.96 60.7 549.96 59.9C553.893 58.3 556.193 56.8667 556.86 55.6ZM654.164 60.8C654.164 60.8 655.231 60.5333 657.364 60C659.364 60 660.364 61 660.364 63C660.364 64.4667 659.364 65.5333 657.364 66.2C656.164 66.6 654.964 66.8 653.764 66.8C652.631 66.8 651.531 66.5333 650.464 66C649.397 65.4667 648.564 64.6667 647.964 63.6C646.964 61.8667 646.231 60 645.764 58L645.364 56.3C644.231 58.2333 641.464 60.5 637.064 63.1C632.731 65.7 628.097 67 623.164 67C620.497 67 618.164 66 616.164 64C614.164 62 613.164 59.6667 613.164 57C613.164 50.5333 615.831 44.9333 621.164 40.2C626.497 35.4 631.897 33 637.364 33C640.364 33 642.931 33.5667 645.064 34.7C647.264 35.7667 648.364 36.8667 648.364 38C648.364 40 647.364 41 645.364 41C644.964 41 643.997 40.6667 642.464 40C640.931 39.3333 639.231 39 637.364 39C633.764 39 629.831 40.7667 625.564 44.3C621.297 47.7667 619.164 52 619.164 57C619.164 58 619.564 58.9333 620.364 59.8C621.231 60.6 622.164 61 623.164 61C627.097 61 630.764 59.9667 634.164 57.9C637.564 55.7667 639.731 54.0333 640.664 52.7C641.597 51.3 642.364 50.0333 642.964 48.9C643.564 47.7667 643.997 47.0333 644.264 46.7C644.597 46.3 645.264 46.1 646.264 46.1C647.264 46.1 648.031 46.4667 648.564 47.2C649.097 47.9333 649.597 49.1 650.064 50.7C650.531 52.2333 650.997 53.9667 651.464 55.9C651.931 57.8333 652.331 59.1333 652.664 59.8C653.064 60.4667 653.564 60.8 654.164 60.8ZM683.811 33.7C685.544 33.9 687.511 34 689.711 34C691.978 34 694.311 33.5 696.711 32.5C699.178 31.4333 701.044 30.2 702.311 28.8C703.578 27.3333 704.611 25.6333 705.411 23.7C706.611 20.7667 707.211 17.9667 707.211 15.3C707.211 12.5667 706.778 10.3667 705.911 8.7C705.111 7.03333 703.878 6.2 702.211 6.2C699.144 6.2 695.744 8.83333 692.011 14.1C688.278 19.3667 685.544 25.9 683.811 33.7ZM674.211 32L677.911 32.8C679.911 23.7333 683.211 16.0333 687.811 9.69999C692.411 3.36666 697.211 0.199998 702.211 0.199998C705.611 0.199998 708.278 1.6 710.211 4.4C712.211 7.2 713.211 10.2667 713.211 13.6C713.211 16.9333 712.744 20.0333 711.811 22.9C710.878 25.7 709.444 28.4333 707.511 31.1C705.644 33.7 703.044 35.8333 699.711 37.5C696.378 39.1667 692.578 40 688.311 40C687.244 40 685.378 39.8667 682.711 39.6C682.378 42.6 682.211 45.4 682.211 48C682.211 52.8 683.411 56.5 685.811 59.1C688.278 61.7 691.144 63 694.411 63C697.678 63 700.544 62.4 703.011 61.2C705.478 60 707.578 58.5333 709.311 56.8C711.044 55 712.911 53.0667 714.911 51C716.978 48.9333 718.978 47.0333 720.911 45.3C722.844 43.5 725.211 42 728.011 40.8C730.878 39.6 733.944 39 737.211 39C741.811 39 745.778 40.7 749.111 44.1C752.511 47.4333 754.211 51.1667 754.211 55.3C754.211 59.3667 752.944 62.6667 750.411 65.2C747.878 67.7333 744.978 69 741.711 69C738.444 69 735.544 68.1667 733.011 66.5C730.478 64.8333 729.211 63.3333 729.211 62C729.211 60 730.211 59 732.211 59C732.744 59 733.844 59.6667 735.511 61C737.244 62.3333 739.111 63 741.111 63C743.111 63 744.778 62.3333 746.111 61C747.511 59.6 748.211 57.9333 748.211 56C748.211 53 747.111 50.4333 744.911 48.3C742.778 46.1 740.278 45 737.411 45C734.544 45 731.878 45.6 729.411 46.8C726.944 48 724.844 49.5 723.111 51.3C721.378 53.0333 719.478 54.9333 717.411 57C715.411 59.0667 713.444 61 711.511 62.8C709.578 64.5333 707.178 66 704.311 67.2C701.511 68.4 698.478 69 695.211 69C689.744 69 685.211 67.1 681.611 63.3C678.011 59.4333 676.211 54.3333 676.211 48C676.211 44.8 676.411 41.6667 676.811 38.6L674.211 38C672.211 37.4667 671.211 36.4667 671.211 35C671.211 33 672.211 32 674.211 32Z" fill="#0E0E10"/>
</svg>
