<svg width="64" height="64" viewBox="0 0 64 64" fill="none" xmlns="http://www.w3.org/2000/svg">
<circle cx="32" cy="32" r="32" fill="#3D56D9"/>
<path d="M45.3334 45.3334H18.6667C18.1201 45.3334 17.6667 44.88 17.6667 44.3334C17.6667 43.7867 18.1201 43.3334 18.6667 43.3334H45.3334C45.8801 43.3334 46.3334 43.7867 46.3334 44.3334C46.3334 44.88 45.8801 45.3334 45.3334 45.3334Z" fill="white"/>
<path d="M29 21.3333V45.3333H35V21.3333C35 19.8666 34.4 18.6666 32.6 18.6666H31.4C29.6 18.6666 29 19.8666 29 21.3333Z" fill="white"/>
<path opacity="0.4" d="M20 29.3333V45.3333H25.3333V29.3333C25.3333 27.8666 24.8 26.6666 23.2 26.6666H22.1333C20.5333 26.6666 20 27.8666 20 29.3333Z" fill="white"/>
<path opacity="0.4" d="M38.6667 36V45.3334H44.0001V36C44.0001 34.5334 43.4667 33.3334 41.8667 33.3334H40.8001C39.2001 33.3334 38.6667 34.5334 38.6667 36Z" fill="white"/>
</svg>
