<svg width="64" height="64" viewBox="0 0 64 64" fill="none" xmlns="http://www.w3.org/2000/svg">
<circle cx="32" cy="32" r="32" fill="#3D56D9"/>
<path opacity="0.4" d="M46.4903 29.6598L45.0203 35.9298C43.7603 41.3448 41.2703 43.5348 36.5903 43.0848C35.8403 43.0248 35.0303 42.8898 34.1603 42.6798L31.6403 42.0798C25.3853 40.5948 23.4503 37.5048 24.9203 31.2348L26.3903 24.9498C26.6903 23.6748 27.0503 22.5648 27.5003 21.6498C29.2553 18.0198 32.2403 17.0448 37.2503 18.2298L39.7553 18.8148C46.0403 20.2848 47.9603 23.3898 46.4903 29.6598Z" fill="white"/>
<path d="M36.5895 43.0849C35.6595 43.7149 34.4895 44.2399 33.0645 44.7049L30.6945 45.4849C24.7395 47.4049 21.6045 45.7999 19.6695 39.8449L17.7495 33.9199C15.8295 27.9649 17.4195 24.8149 23.3745 22.8949L25.7445 22.1149C26.3595 21.9199 26.9445 21.7549 27.4995 21.6499C27.0495 22.5649 26.6895 23.6749 26.3895 24.9499L24.9195 31.2349C23.4495 37.5049 25.3845 40.5949 31.6395 42.0799L34.1595 42.6799C35.0295 42.8899 35.8395 43.0249 36.5895 43.0849Z" fill="white"/>
<path d="M40.2351 29.7652C40.1451 29.7652 40.0551 29.7502 39.9501 29.7352L32.6751 27.8902C32.0751 27.7402 31.7151 27.1252 31.8651 26.5252C32.0151 25.9252 32.6301 25.5652 33.2301 25.7152L40.5051 27.5602C41.1051 27.7102 41.4651 28.3252 41.3151 28.9252C41.1951 29.4202 40.7301 29.7652 40.2351 29.7652Z" fill="white"/>
<path d="M35.8397 34.8348C35.7497 34.8348 35.6597 34.8198 35.5547 34.8048L31.1897 33.6948C30.5897 33.5448 30.2297 32.9298 30.3797 32.3298C30.5297 31.7298 31.1447 31.3698 31.7447 31.5198L36.1097 32.6298C36.7097 32.7798 37.0697 33.3948 36.9197 33.9948C36.7997 34.5048 36.3497 34.8348 35.8397 34.8348Z" fill="white"/>
</svg>
