<svg width="1990" height="2514" viewBox="0 0 1990 2514" fill="none" xmlns="http://www.w3.org/2000/svg">
<rect x="38.8828" y="1206.43" width="194.415" height="133.989" fill="#F7F3EA"/>
<rect x="38.8828" y="1945.2" width="194.415" height="133.989" fill="#F7F3EA"/>
<mask id="path-3-inside-1_25_200" fill="white">
<path fill-rule="evenodd" clip-rule="evenodd" d="M1159.21 558.341V683.462H1257.47V558.344L1299.58 467.766H1117.1L1159.21 558.341Z"/>
</mask>
<path fill-rule="evenodd" clip-rule="evenodd" d="M1159.21 558.341V683.462H1257.47V558.344L1299.58 467.766H1117.1L1159.21 558.341Z" fill="#F7F3EA"/>
<path d="M1159.21 683.462H1143.21V699.462H1159.21V683.462ZM1159.21 558.341H1175.21V554.803L1173.72 551.596L1159.21 558.341ZM1257.47 683.462V699.462H1273.47V683.462H1257.47ZM1257.47 558.344L1242.96 551.598L1241.47 554.806V558.344H1257.47ZM1299.58 467.766L1314.08 474.511L1324.66 451.766H1299.58V467.766ZM1117.1 467.766V451.766H1092.02L1102.59 474.511L1117.1 467.766ZM1175.21 683.462V558.341H1143.21V683.462H1175.21ZM1257.47 667.462H1159.21V699.462H1257.47V667.462ZM1241.47 558.344V683.462H1273.47V558.344H1241.47ZM1271.98 565.089L1314.08 474.511L1285.07 461.021L1242.96 551.598L1271.98 565.089ZM1299.58 451.766H1117.1V483.766H1299.58V451.766ZM1102.59 474.511L1144.7 565.086L1173.72 551.596L1131.61 461.021L1102.59 474.511Z" fill="black" mask="url(#path-3-inside-1_25_200)"/>
<path d="M1229.74 513.058L1203.88 266.983L2394.36 29.2267L2431.94 386.702L1229.74 513.058Z" fill="#F7F3EA" stroke="black" stroke-width="16"/>
<circle cx="1208.66" cy="391.497" r="123.099" transform="rotate(-6 1208.66 391.497)" fill="#F7F3EA" stroke="black" stroke-width="16"/>
<path d="M2348.86 877.203V870.51L2342.28 869.328C2155.4 835.816 1593.58 741.306 1208.52 741.287C823.288 741.268 261.189 835.811 74.2524 869.329L67.6643 870.511V877.204V2438.34V2446.34H75.6643H2340.86H2348.86V2438.34V877.203ZM8 857.609C8 836.155 22.8296 818.011 43.7128 814.214C206.455 784.623 802.322 681.603 1208.53 681.623C1614.54 681.643 2210.12 784.627 2372.82 814.213C2393.7 818.011 2408.53 836.155 2408.53 857.608V2461.46C2408.53 2486.06 2388.59 2506 2363.98 2506H52.5446C27.9433 2506 8 2486.06 8 2461.46V857.609Z" fill="#F7F3EA" stroke="black" stroke-width="16"/>
<rect x="165.108" y="1004.25" width="2086.84" height="1278.18" rx="24" fill="#111111" stroke="#F7F3EA" stroke-width="16"/>
</svg>
